<svg xmlns="http://www.w3.org/2000/svg" xmlns:xlink="http://www.w3.org/1999/xlink" id="Layer_1" x="0px" y="0px" viewBox="0 0 208.5 80.5" style="enable-background:new 0 0 208.5 80.5;" xml:space="preserve"><style type="text/css">	.st0{fill:#FFFFFF;}</style><g id="Group_137" transform="translate(-693.881 -201.705)">	<g id="Group_115" transform="translate(727.394 215.359)">		<g id="Group_114">			<path id="Path_224" class="st0" d="M47.8,24.6c0.5-1.2,0.9-2.4,1.5-3.5c0.5-1,1.1-2,1.7-3c0.9-1.3,2.5-1.9,4-1.6    c1.1,0.1,1.4,0.7,1.2,1.7c-0.3,1.3-0.4,2.6-0.4,3.9c0.2-0.3,0.3-0.5,0.5-0.8c1.4-2.2,2.7-4.4,4.1-6.5c0.8-1.2,2.1-1.8,3.5-1.8    c1.5,0,2.2,0.8,2,2.3c-0.6,3.8-1.1,7.5-1.7,11.3c-0.1,0.9,0,1.8,0.2,2.6c0.4-0.3,0.7-0.6,1-0.9c1.7-2.5,2.9-5.2,3.7-8.1    c0.5-2.5,1.5-4.9,2.9-7.1c2.2-3.1,5.1-3.1,7.5-0.2c1.1,1.4,1.8,3.2,1.9,5c0.3,1.6-0.6,3.2-2.1,3.8c-1.5,0.6-3.1,1.1-4.7,1.4    c-0.6,0.1-1,0.3-1,1c0,1.9,0.1,3.9,0.3,5.8c0.4,2.1,1.9,2.6,3.6,1.4c1.3-0.9,2.4-2,3.2-3.3c1.4-2.1,2.6-4.3,3.6-6.6    c0.4-1.2,0.6-2.4,0.6-3.7c0.3-2.4,1.7-3.7,3.9-3.5c0.9-0.1,1.7,0.6,1.8,1.5c0,0.2,0,0.5-0.1,0.7c-0.3,2.1-0.7,4.1-1,6.2    c-0.1,0.7-0.1,1.3,0,2c0.1-0.2,0.2-0.4,0.3-0.7c0.8-1.5,1.4-3.1,2.3-4.6c0.9-1.3,2.6-2,4.2-1.6c0.9,0.3,1.2,0.7,1.1,1.8    c-0.3,2.3-0.4,4.6-0.5,7c0.1,0.4,0.2,0.9,0.5,1.2c0.4-0.2,1-0.4,1.2-0.7c2.1-2.6,3.9-5.3,3.8-8.9c0-1.9,0.3-3.7,0.4-5.7    c-0.5,0-0.8-0.1-1.1-0.1c-0.4,0-0.9,0-1.3,0c-0.8-0.1-1.6-0.4-1.6-1.3c0-0.9,0.8-1.1,1.6-1.2c0.8-0.1,1.7,0,2.6,0    c0.1-0.8,0.1-1.5,0.2-2.2c0-1.4,1.1-2.6,2.5-2.6c0.2,0,0.5,0,0.7,0.1c1.7,0.2,2.3,1.3,2,3.3c-0.1,0.3-0.1,0.7-0.2,1.2    c0.8,0,1.5,0,2.2,0c0.5,0,1,0.2,1.4,0.4c0.9,0.5,0.8,1.5-0.1,1.8c-0.8,0.3-1.7,0.4-2.5,0.4c-1,0-1.4,0.2-1.4,1.3    c-0.2,4.9-0.4,9.8-0.6,14.7c0.1,0.7,0.3,1.4,0.6,2.1c0.6-0.4,1.1-1,1.5-1.6c1.4-3,2.7-6,3.9-9c0.6-1.7,1.5-3.2,2.7-4.5    c2.5-2.3,6.4-2.1,8.7,0.5c0.1,0.1,0.2,0.2,0.3,0.3c0.3,0.4,0.6,0.9,1,1.4c0.8-1.5,1.7-2.9,3.6-2.2c1.7,0.7,0.5,2.2,0.6,3.5    c0.8-0.1,1.7-0.1,2.5-0.2c2-0.2,2.4,0.3,2.1,2.3c-0.4,2.8-0.7,5.6-1,8.3c0,0.3,0,0.6,0.1,0.8c0.1,0.3,0.3,0.6,0.6,0.7    c0.3,0,0.6-0.1,0.8-0.4c0.3-0.4,0.6-0.8,0.7-1.2c1.1-2.7,2.1-5.5,3.1-8.3c0.3-0.9,0.9-1.5,1.7-1.3c0.9,0.3,0.9,1,0.8,1.8    c-0.6,3.1-1.7,6.1-3.3,8.9c-0.7,1.2-1.7,2.2-2.8,3.1c-2.3,1.7-4.7,0.9-5.6-1.8c-1-3-0.7-6,0-9.1c0.1-0.5,0.2-1,0.4-1.6    c-0.9-0.1-1.6-0.2-1.8,0.8c-0.1,0.3-0.3,0.7-0.6,0.7c-1,0.2-0.9,0.9-1.1,1.6c-0.3,2.5-1.6,4.7-3.6,6.2c-3,2.1-7.1,1.4-9.2-1.5    c0,0-0.1-0.1-0.1-0.1c-0.2-0.3-0.4-0.5-0.4-0.6c-1.1,1.7-2.2,3.4-3.5,5c-0.8,0.8-1.8,1.4-2.9,1.6c-1.3,0.4-2.7-0.3-3.2-1.6    c0,0,0,0,0,0c-0.5-1.5-0.9-3.1-1.3-4.7c-0.1-0.5-0.2-1-0.2-1.5c-0.9,1.2-1.7,2.2-2.6,3.1c-1.2,1.7-3.5,2-5.2,0.8    c-0.9-0.7-1.5-1.7-1.5-2.8c-0.2-1.2-0.3-2.5-0.3-3.8c0-0.2,0-0.3-0.1-0.9c-0.3,0.4-0.6,0.8-0.8,1.3c-0.6,2-1.2,4.1-1.7,6.1    c-0.3,1.4-1.6,2.3-2.9,2.1c-1.1,0.1-2.1-0.8-2.2-1.9c0-0.2,0-0.4,0-0.6c0-0.9,0-1.8,0-2.7l-0.3-0.1c-0.3,0.5-0.5,0.9-0.8,1.4    c-1.7,2.9-3.9,5.3-7.4,6.1c-3.3,0.8-5.7-0.3-7-3.5c-0.4-1.1-0.8-2.3-1.1-3.5c-0.8,1.1-1.5,2.1-2.3,3c-0.7,1-1.8,1.6-3,1.8    c-1.6,0.1-2.7-0.4-3.1-2c-0.4-1.8-0.6-3.6-0.5-5.4c0.1-1.7,0.3-3.4,0.6-5.1c-0.4,0.5-0.7,0.9-1,1.5c-1.2,2.3-2.4,4.6-3.5,7    c-0.5,1.1-1.4,2-2.6,2.3c-1.1,0.3-1.6,0.1-1.7-1.1c-0.2-1.8-0.2-3.5-0.2-5.3c0-0.6,0-1.1,0-1.7l-0.3-0.1    c-0.3,0.4-0.5,0.8-0.6,1.3c-0.8,2.5-1.5,5-2.1,7.6c-0.3,1.9-3.1,2.7-4.5,1.4c-0.3-0.4-0.5-0.9-0.5-1.4c-0.1-1.4,0-2.9,0-4.3    l-0.4-0.1c-0.2,0.4-0.4,0.7-0.6,1.1c-1.1,2.3-2.9,4.2-5.2,5.5c-1,0.6-2.1,0.9-3.2,1.1c-3.1,0.4-4.9-0.7-6.1-3.6    c-0.2-0.6-0.4-1.1-0.7-1.9c-0.2,0.4-0.3,0.7-0.5,0.9c-0.8,1.4-1.6,2.8-2.5,4.1c-0.6,0.7-1.4,1.3-2.3,1.6    c-1.3,0.7-2.9,0.1-3.6-1.2c-0.1-0.1-0.1-0.2-0.1-0.4c-0.6-1.9-1.1-3.8-1.5-5.7c0-0.4-0.2-0.8-0.4-1.2c-0.3,0.4-0.5,0.9-0.8,1.3    c-1.8,2.8-4,5.1-7.4,5.9c-3.2,0.7-5.4-0.4-6.8-3.4c-1.1-2.7-1.4-5.7-1-8.6c0.2-3.6,1.5-7.1,3.6-10.1c0.9-1.4,2.5-2.1,4.1-1.8    c0.5,0.1,1,0.3,1.5,0.6c2.3,1.6,3.6,4.3,3.5,7.1c0,1.4-0.9,2.7-2.2,3.2c-1.5,0.6-3.1,1-4.7,1.3C5.3,23.1,5,23.2,5,23.9    c0,2,0.1,4,0.3,6c0.3,1.9,1.9,2.4,3.5,1.3c1-0.7,2-1.6,2.8-2.5c1-1.3,1.9-2.7,2.7-4.2c1.4-2.4,2.2-5.1,2.2-7.9    c0.1-4,0.6-8,0.9-12c0.1-0.8,0.1-1.5,0.1-2.3C17.6,1,18.8-0.1,20.2,0c0.1,0,0.2,0,0.3,0c1.3,0,2.3,1.1,2.3,2.4    c0,0.2,0,0.4-0.1,0.6c-1.1,7.7-1.7,15.5-1.8,23.4c0,1.2,0.1,2.4,0.3,3.6c0.2,0.7,0.5,1.3,0.9,1.8c0.5-0.4,0.9-0.9,1.2-1.5    c1.1-2.6,2.1-5.2,3-7.9c0.7-1.8,1-3.8,1.7-5.6c0.6-1.6,1.5-3.1,2.5-4.5c1.6-2.1,4.1-2.2,6.1-0.4c1.8,1.6,2.8,3.9,2.8,6.3    c0.1,1.5-0.8,2.9-2.2,3.4c-1.5,0.6-3.1,1-4.6,1.3c-0.6,0.1-1,0.3-1,1c0,2,0.1,3.9,0.3,5.9c0.4,2,1.9,2.5,3.6,1.3    c1.2-0.9,2.3-2,3.2-3.2c0.7-1,1.3-2,1.9-3c1.6-2.6,2.5-5.5,2.4-8.6c0.1-2.3,1.9-4.1,4.2-4.3c1.4-0.2,1.8,0.3,1.6,1.7    c-0.5,3.1-0.9,6.2-1.3,9.3c0,0.5,0,1,0,1.5L47.8,24.6z M117.2,21.8c0.4,1.5,0.8,3.3,1.5,4.9c0.4,0.6,1,1,1.7,1    c0.4,0,1.1-0.7,1.3-1.2c1.2-3.1,1-6.6-0.5-9.6c-0.3-0.6-0.9-1-1.5-1.1c-0.5,0-1.2,0.7-1.3,1.2C117.9,18.5,117.6,20,117.2,21.8z     M32.2,19.6c2.5,0.2,3.3-0.5,3.3-2.6c0-0.7-0.1-1.5-0.3-2.2c-0.1-0.3-0.4-0.6-0.6-0.8c-0.3,0.2-0.6,0.4-0.7,0.7    C33.3,16.2,32.8,17.9,32.2,19.6L32.2,19.6z M5.5,19.6c2.1,0.1,3.1-0.3,3.2-1.5c0.1-1.1,0-2.3-0.2-3.4c0-0.3-0.4-0.5-0.6-0.7    c-0.2,0.2-0.6,0.3-0.7,0.6C6.7,16.2,6.1,17.8,5.5,19.6z M74.1,19.5c1.8,0.3,3-0.2,3.1-1.4c0.1-1.2,0-2.3-0.2-3.5    c0-0.2-0.4-0.5-0.6-0.7c-0.2,0.2-0.6,0.4-0.7,0.6C75.2,16.2,74.7,17.8,74.1,19.5L74.1,19.5z"></path>		</g>	</g>	<g id="Group_116" transform="translate(758.029 264.706)">		<path id="Path_225" class="st0" d="M1.4,6.6v3.8H0V0h2.6c0.8,0,1.6,0.1,2.3,0.4C5.4,0.6,5.8,1,6.1,1.4c0.3,0.5,0.4,1,0.4,1.6   c0,0.7-0.2,1.3-0.5,1.9c-0.3,0.6-0.9,1-1.5,1.3C3.7,6.5,2.8,6.7,1.9,6.6H1.4z M1.4,5.6H2c0.6,0,1.3-0.1,1.9-0.3   c0.4-0.2,0.7-0.5,0.9-0.9C5,3.9,5.1,3.5,5.1,3c0-0.5-0.2-1.1-0.6-1.4C3.8,1.1,3,1,2.2,1.1H1.4L1.4,5.6z"></path>		<path id="Path_226" class="st0" d="M8.8,10.4V2.9H10v1.6c0.3-0.6,0.8-1,1.3-1.4c0.5-0.3,1.1-0.5,1.7-0.5c0.5,0,0.9,0.1,1.4,0.2   v2.7h-1.2V3.9c-0.2,0-0.3,0-0.5-0.1c-0.5,0-1,0.2-1.4,0.6c-0.5,0.5-1,1-1.3,1.7v4.4L8.8,10.4z"></path>		<path id="Path_227" class="st0" d="M19.5,10.7c-1,0-1.9-0.4-2.6-1.1c-1.3-1.7-1.3-4,0-5.7c1.3-1.4,3.6-1.5,5-0.2   C22,3.7,22,3.8,22.1,3.8c1.3,1.7,1.3,4,0,5.7C21.4,10.3,20.5,10.7,19.5,10.7z M19.5,9.6c0.6,0,1.2-0.3,1.6-0.8   c0.8-1.3,0.8-3,0-4.3c-0.7-0.9-2-1-2.8-0.4c-0.1,0.1-0.3,0.2-0.4,0.4c-0.8,1.3-0.8,3,0,4.3C18.3,9.3,18.9,9.6,19.5,9.6z"></path>		<path id="Path_228" class="st0" d="M38.8,9.3v1.1h-5.6V0h5.5v1.1h-4.2v3.5h3.8v1h-3.8v3.7L38.8,9.3z"></path>		<path id="Path_229" class="st0" d="M41.9,10.4h-1.5l3-3.9l-2.8-3.6h1.6l2,2.5l1.9-2.5h1.4l-2.6,3.5l3.1,4.1h-1.6l-2.3-3L41.9,10.4   z"></path>		<path id="Path_230" class="st0" d="M50.6,4.6c0.3-0.6,0.8-1.1,1.4-1.4c0.4-0.3,1-0.5,1.5-0.5c0.7,0,1.3,0.3,1.7,0.8   c0.6,0.7,0.8,1.6,0.8,2.5c0,0.8-0.2,1.6-0.5,2.3C55.1,9,54.6,9.5,54,10c-0.6,0.4-1.3,0.6-2.1,0.6c-0.2,0-0.6,0-1.1-0.1   c-0.1,0-0.2,0-0.3,0v2.9h-1.2V2.9h1.2L50.6,4.6z M50.6,6.1v3.2c0.4,0.1,0.8,0.2,1.3,0.2c0.7,0,1.4-0.3,1.9-0.9   c0.6-0.7,0.8-1.6,0.8-2.4c0-0.6-0.1-1.2-0.4-1.7c-0.2-0.3-0.6-0.5-1-0.6c-0.5,0-0.9,0.3-1.3,0.6C51.3,5,50.9,5.5,50.6,6.1z"></path>		<path id="Path_231" class="st0" d="M63.9,9.9c-0.9,0.4-1.9,0.7-2.8,0.7c-0.6,0-1.3-0.2-1.8-0.5c-0.6-0.4-1-0.9-1.3-1.4   c-0.3-0.6-0.5-1.3-0.5-2c0-0.7,0.2-1.4,0.5-2c0.3-0.6,0.7-1.1,1.3-1.5c0.5-0.4,1.2-0.5,1.8-0.5c0.8,0,1.6,0.3,2.1,1   c0.6,0.9,0.9,1.9,0.8,2.9v0.3h-5.2c0,0.5,0.1,1,0.3,1.4c0.2,0.4,0.5,0.7,0.9,1c0.4,0.2,0.8,0.3,1.2,0.3c0.9,0,1.9-0.3,2.7-0.8   L63.9,9.9z M58.9,6h3.7V5.8c0-0.5-0.1-1-0.5-1.5c-0.3-0.4-0.7-0.6-1.2-0.5c-0.5,0-1,0.2-1.3,0.6C59.3,4.8,59,5.3,58.9,6L58.9,6z"></path>		<path id="Path_232" class="st0" d="M66.6,10.4V2.9h1.3v1.6c0.3-0.6,0.8-1,1.3-1.4c0.5-0.3,1.1-0.5,1.7-0.5c0.5,0,0.9,0.1,1.4,0.2   v2.7H71V3.9c-0.2,0-0.3,0-0.5-0.1c-0.5,0-1,0.2-1.4,0.6c-0.5,0.5-1,1-1.3,1.7v4.4L66.6,10.4z"></path>		<path id="Path_233" class="st0" d="M80.5,10.1c-0.4,0.2-0.8,0.3-1.3,0.4c-0.3,0-0.5,0.1-0.8,0.1c-0.5,0-1-0.1-1.4-0.3   c-0.4-0.2-0.8-0.5-1-0.9c-0.3-0.6-0.4-1.2-0.3-1.8v-3h-1.9v-1h1.9v-3h1.2v3h3.4v1h-3.3v3c0,0.4,0,0.9,0.2,1.3   c0.1,0.2,0.3,0.4,0.6,0.5c0.3,0.1,0.6,0.2,0.8,0.2c0.7,0,1.3-0.2,1.9-0.6L80.5,10.1z"></path>	</g>	<g id="Group_126" transform="translate(870.365 201.705)">		<g id="Group_118" transform="translate(1.434 8.437)">			<g id="Group_117">				<path id="Path_234" class="st0" d="M0.1,71.7c0.1-0.2,0.2-0.5,0.3-0.8v0c0.1-0.5,0-1-0.1-1.5c0-0.1,0-0.2,0-0.2c0,0,0,0,0-0.1     c2.1-1.4,4-3,5.7-4.8c14.6-15.8,17-46.8,0.2-62.3C5,1.1,6.5-0.7,7.6,0.3c16.9,15.5,16.1,47.2,1.6,63.9c-2.7,3-5.7,5.7-9.1,7.8     c0,0-0.1-0.1-0.1-0.1C0,71.9,0,71.8,0.1,71.7L0.1,71.7z"></path>			</g>		</g>		<g id="Group_119" transform="translate(6.58 68.585)">			<path id="Path_235" class="st0" d="M0,7.2c0,0,18-10.9,20.3-5.8S2.3,9.1,0,7.2z"></path>		</g>		<g id="Group_120" transform="translate(10.603 45.006)">			<path id="Path_236" class="st0" d="M3.5,21.1c0,0-6.8-19.9-1.3-21.1S5.8,19.3,3.5,21.1z"></path>		</g>		<g id="Group_121" transform="translate(1.235 61.725)">			<path id="Path_237" class="st0" d="M0.2,18.7c0,0-1.6-16.2,3.6-18.5S2.7,16.5,0.2,18.7z"></path>		</g>		<g id="Group_122" transform="translate(17.398 40.919)">			<path id="Path_238" class="st0" d="M0,16.3c0,0,9-19,13.8-16S3,16.6,0,16.3z"></path>		</g>		<g id="Group_123" transform="translate(6.03 24.281)">			<path id="Path_239" class="st0" d="M14.3,16.6c0,0-17.5-11.7-13.8-16S15.1,13.7,14.3,16.6z"></path>		</g>		<g id="Group_124" transform="translate(19.314 11.672)">			<path id="Path_240" class="st0" d="M0,20.5c0,0-0.6-21,5-20.5S2.8,19.4,0,20.5z"></path>		</g>		<g id="Group_125">			<path id="Path_241" class="st0" d="M14.1,16.8c0,0-17.3-11.9-13.6-16.1S14.9,13.9,14.1,16.8z"></path>		</g>	</g>	<g id="Group_136" transform="translate(693.881 201.705)">		<g id="Group_128" transform="translate(9.668 8.437)">			<g id="Group_127">				<path id="Path_242" class="st0" d="M18.6,71.7c-0.1-0.2-0.2-0.5-0.2-0.8v0c-0.1-0.5,0-1,0.1-1.5c0-0.1,0-0.2,0-0.2     c0,0,0,0,0-0.1c-1.9-1.4-3.7-3-5.3-4.8C-0.4,48.5-2.5,17.5,13,2.1c1-1-0.4-2.8-1.4-1.8C-4,15.8-3.3,47.5,10.1,64.2     c2.4,3,5.2,5.6,8.4,7.8c0,0,0-0.1,0.1-0.1C18.6,71.9,18.6,71.8,18.6,71.7L18.6,71.7z"></path>			</g>		</g>		<g id="Group_129" transform="translate(4.609 68.585)">			<path id="Path_243" class="st0" d="M18.9,7.2c0,0-16.6-10.9-18.7-5.8S16.8,9.1,18.9,7.2z"></path>		</g>		<g id="Group_130" transform="translate(14.502 45.006)">			<path id="Path_244" class="st0" d="M2.1,21.1c0,0,6.3-19.9,1.2-21.1S0,19.3,2.1,21.1z"></path>		</g>		<g id="Group_131" transform="translate(23.077 61.725)">			<path id="Path_245" class="st0" d="M5.2,18.7c0,0,1.4-16.2-3.3-18.5S2.8,16.5,5.2,18.7z"></path>		</g>		<g id="Group_132" transform="translate(0 40.919)">			<path id="Path_246" class="st0" d="M13.5,16.3c0,0-8.3-19-12.7-16S10.8,16.6,13.5,16.3z"></path>		</g>		<g id="Group_133" transform="translate(10.779 24.281)">			<path id="Path_247" class="st0" d="M0,16.6c0,0,16.1-11.7,12.7-16S-0.7,13.7,0,16.6z"></path>		</g>		<g id="Group_134" transform="translate(5.326 11.672)">			<path id="Path_248" class="st0" d="M6.4,20.5c0,0,0.6-21-4.6-20.5S3.8,19.4,6.4,20.5z"></path>		</g>		<g id="Group_135" transform="translate(16.509)">			<path id="Path_249" class="st0" d="M0,16.8c0,0,16-11.9,12.6-16.1S-0.7,13.9,0,16.8z"></path>		</g>	</g></g></svg>