<svg xmlns="http://www.w3.org/2000/svg" xmlns:xlink="http://www.w3.org/1999/xlink" id="Layer_1" x="0px" y="0px" viewBox="0 0 209.6 80.9" style="enable-background:new 0 0 209.6 80.9;" xml:space="preserve"><style type="text/css">	.st0{fill:#FFFFFF;}</style><g id="Group_113" transform="translate(-948.776 -200.166)">	<g id="Group_91" transform="translate(1006.957 214.346)">		<g id="Group_82" transform="translate(64.548 3.141)">			<path id="Path_187" class="st0" d="M5.5,0C2.5,0,0,2.5,0,5.5c0,3,2.5,5.5,5.5,5.5c3,0,5.5-2.5,5.5-5.5C11,2.5,8.5,0,5.5,0    C5.5,0,5.5,0,5.5,0 M8,9.1c1.6-2,1.2-4.9-0.8-6.4C6.7,2.2,6,1.9,5.3,1.8C5.5,1.5,5.7,1.2,6,1c2.5,0.4,4.2,2.8,3.8,5.3    C9.5,7.4,8.9,8.4,8,9.1"></path>		</g>		<g id="Group_83" transform="translate(11.561)">			<path id="Path_188" class="st0" d="M64.3,2.6c-2.1-2.2-5.1-3-8.8-2.3c-2.8,0.6-5.6,1-8.4,1.1c-1.5-0.1-2.9-0.3-4.3-0.7    c0.7,1,1.7,1.8,2.8,2.2c1.1,0.4,2.5,1,1.9,2C46.6,6,45.5,5,45.2,4.8c-1.1-0.9-2.3-1.8-3.5-2.5c-2.1-1.2-5-1.3-8-1    c1.3,0.3,2.5,0.8,3.5,1.6c0,0-4.7-1-7.7,0.5c3.4,0.1,6.8,0.5,10.1,1.2C40.4,5,40,5.3,39.2,5.5C36.6,6,33.9,6,31.3,5.4    c-3.3-0.9-6-3.7-10.7-2.9c4.1,0.9,6.3,4.7,10.8,5.6S39,7.2,40,7s1.9,0.1,2.2,0.8s-0.7,1.6-1.9,1.8c-0.9,0.2-1.2,0.2-2.9,0.4    c-2.7,0.3-5.5,0.1-8.1-0.7c-4.2-1.1-7.1-3.9-8.5-4.6c-1.3-0.6-2.7-1.1-4.1-1.3C18,4.1,19.1,5,19.9,6.1c-2.9-1-6-1.1-8.9-0.4    C7.2,6.4,3.6,7.5,0,8.9C2.5,9.6,5.6,9.1,6.9,9c7.3-0.6,9.8,1,12.1,1.8c7.1,2.5,9.6,0.3,10.1,1c0.3,0.5-1.9,1.5-2.6,1.6    c-3.2,0.6-4.8,0-7.8-0.7c2.1,1.8,4.8,2.6,7.5,2.4c3.2-0.1,6.4-0.7,9.4-1.8c2-0.9,4-1.6,6-2.2c0.6-0.2,2.9-0.8,3.3-0.2    c0.3,0.3-0.2,0.6-0.9,0.9c-0.6,0.2-1.3,0.5-2,0.7c-1.9,0.6-3.8,1.5-5.5,2.5c2.7-0.4,5.5-0.6,8.3-0.6c3.4,0,6.8,0.7,9.9,2    c2.9,1.3,6.3,0.8,8.7-1.3c2.1-1.5,3.3-4,3.2-6.5C66.8,6.4,65.9,4.2,64.3,2.6 M58.5,15.6c-3.8,0-6.9-3.1-6.9-6.9s3.1-6.9,6.9-6.9    c3.8,0,6.9,3.1,6.9,6.9C65.4,12.5,62.3,15.6,58.5,15.6C58.5,15.6,58.5,15.6,58.5,15.6"></path>		</g>		<g id="Group_84" transform="translate(25.884 24.678)">			<path id="Path_189" class="st0" d="M18.5,0H3.8L0,10.4h2.9l2.9-7.9h3.6c0.3,0,0.5,0.2,0.5,0.5c0,0.1,0,0.2-0.1,0.3l-2.6,7.2h2.9    l2.6-7.2c0.2-0.4,0.5-0.7,1-0.7h2.9c0.3,0,0.5,0.2,0.5,0.5c0,0.1,0,0.2-0.1,0.3l-2.6,7.2h2.9l3-8.3C20.7,1,19.9,0,18.5,0"></path>		</g>		<g id="Group_85" transform="translate(56.025 24.678)">			<path id="Path_190" class="st0" d="M8.4,7.2c-0.2,0.4-0.5,0.7-1,0.7H3.8c-0.3,0-0.5-0.2-0.5-0.5c0-0.1,0-0.2,0.1-0.3L6,0H3.1    l-3,8.3c-0.4,1.2,0.3,2.2,1.7,2.2h6.5c1,0,1.9-0.6,2.3-1.4l3.3-9H11L8.4,7.2z"></path>		</g>		<g id="Group_86" transform="translate(13.246 24.678)">			<path id="Path_191" class="st0" d="M3.4,7.2l0.3-0.7h8.6L13.2,4l0.7-1.8C14.3,1,13.5,0,12.1,0H4.9C3.9,0,3,0.6,2.6,1.4l0,0    L0.1,8.3c-0.4,1.2,0.3,2.2,1.7,2.2h9l0.9-2.5H3.8c-0.3,0-0.5-0.2-0.5-0.5C3.3,7.4,3.3,7.3,3.4,7.2 M4.8,3.2    c0.2-0.4,0.5-0.7,1-0.7h4.3c0.3,0,0.5,0.2,0.5,0.5c0,0.1,0,0.2-0.1,0.3L10.3,4H4.6L4.8,3.2z"></path>		</g>		<g id="Group_87" transform="translate(80.524 24.679)">			<path id="Path_192" class="st0" d="M11.7,0l-1.4,4h-5l1.4-4H3.8L0,10.4h2.9l1.4-4h5l-1.4,4h2.9L14.6,0H11.7L11.7,0z"></path>		</g>		<g id="Group_88" transform="translate(44.936 24.678)">			<path id="Path_193" class="st0" d="M3.3,1.4l-3.3,9h2.9l2.6-7.2c0.2-0.4,0.5-0.7,1-0.7h5L12.4,0H5.6C4.6,0,3.7,0.6,3.3,1.4"></path>		</g>		<g id="Group_89" transform="translate(0 24.678)">			<path id="Path_194" class="st0" d="M3.3,1.4L3.3,1.4l-1,2.9C1.8,5.5,2.6,6.5,4,6.5h4.7c0.3,0,0.5,0.2,0.5,0.5    c0,0.1,0,0.2-0.1,0.3c-0.2,0.4-0.5,0.7-1,0.7H0.9L0,10.4h9c1,0,1.9-0.6,2.3-1.4l1-2.9C12.8,4.9,12,4,10.6,4H5.9    C5.7,4,5.4,3.8,5.4,3.5c0-0.1,0-0.2,0.1-0.3c0.2-0.4,0.5-0.7,1-0.7h7.2L14.6,0h-9C4.6,0,3.7,0.5,3.3,1.4"></path>		</g>		<g id="Group_90" transform="translate(67.941 24.678)">			<path id="Path_195" class="st0" d="M3.3,1.4L3.3,1.4l-1,2.9C1.8,5.5,2.6,6.5,4,6.5h4.7c0.3,0,0.5,0.2,0.5,0.5    c0,0.1,0,0.2-0.1,0.3c-0.2,0.4-0.5,0.7-1,0.7H0.9L0,10.4h9c1,0,1.9-0.6,2.3-1.4l1-2.9C12.8,4.9,12,4,10.6,4H6    C5.7,4,5.5,3.8,5.4,3.5c0-0.1,0-0.2,0.1-0.3c0.2-0.4,0.5-0.7,1-0.7h7.2L14.6,0h-9C4.6,0,3.7,0.6,3.3,1.4"></path>		</g>	</g>	<g id="Group_92" transform="translate(1000.393 262.854)">		<path id="Path_196" class="st0" d="M6.6,11c-0.7,0.3-1.4,0.4-2.1,0.4c-0.8,0-1.6-0.2-2.3-0.7c-0.7-0.5-1.3-1.2-1.6-2   c-0.8-1.9-0.8-4,0-5.9c0.3-0.8,0.9-1.5,1.6-2c0.7-0.4,1.5-0.7,2.3-0.7c0.7,0,1.4,0.2,2.1,0.4V2C5.9,1.6,5.2,1.4,4.4,1.4   c-0.5,0-1.1,0.2-1.5,0.6C2.4,2.4,2,2.9,1.8,3.6C1.5,4.3,1.4,5.1,1.4,5.9c0,0.8,0.1,1.6,0.4,2.4c0.2,0.6,0.6,1.2,1.1,1.6   c0.4,0.3,0.9,0.5,1.5,0.5c0.8,0,1.5-0.2,2.2-0.6L6.6,11z"></path>		<path id="Path_197" class="st0" d="M14.8,10.6C14,11.1,13,11.3,12,11.3c-0.6,0-1.3-0.2-1.8-0.5c-0.6-0.4-1-0.9-1.3-1.4   c-0.3-0.6-0.5-1.3-0.5-2c0-0.7,0.2-1.4,0.5-2c0.3-0.6,0.7-1.1,1.3-1.5c0.5-0.4,1.2-0.5,1.8-0.5c0.8,0,1.6,0.3,2.2,1   c0.6,0.9,0.9,1.9,0.8,3v0.3H9.7c0,0.5,0.1,1,0.3,1.4c0.2,0.4,0.5,0.7,0.9,1c0.4,0.2,0.8,0.3,1.2,0.3c1,0,1.9-0.3,2.7-0.8   L14.8,10.6z M9.8,6.6h3.8V6.4c0-0.5-0.1-1-0.5-1.5c-0.3-0.4-0.7-0.6-1.2-0.5c-0.5,0-1,0.2-1.3,0.6C10.2,5.4,9.9,6,9.8,6.6L9.8,6.6   z"></path>		<path id="Path_198" class="st0" d="M17.5,11.1V3.6h1.3v1.6c0.3-0.6,0.8-1,1.3-1.4c0.5-0.3,1.1-0.5,1.7-0.5c0.5,0,0.9,0.1,1.4,0.2   v2.7H22V4.6c-0.2,0-0.3-0.1-0.5-0.1c-0.5,0-1,0.2-1.4,0.6c-0.5,0.5-1,1-1.3,1.7v4.4L17.5,11.1z"></path>		<path id="Path_199" class="st0" d="M31.5,10.8c-0.4,0.2-0.8,0.3-1.3,0.4c-0.3,0-0.5,0.1-0.8,0.1c-0.5,0-1-0.1-1.4-0.3   c-0.4-0.2-0.8-0.5-1-0.9c-0.3-0.6-0.4-1.2-0.3-1.8v-3h-1.9v-1h1.9V1.2h1.3v3h3.4v1.1h-3.4v3c0,0.4,0,0.9,0.2,1.3   c0.1,0.2,0.3,0.4,0.6,0.5c0.3,0.1,0.6,0.2,0.8,0.2c0.7,0,1.3-0.2,1.9-0.6L31.5,10.8z"></path>		<path id="Path_200" class="st0" d="M35.6,11.1V4.6h-2.1V3.6h3.4v6.5H39v1.1L35.6,11.1z M35.4,0.8c0-0.2,0.1-0.5,0.3-0.6   C35.9,0.1,36,0,36.2,0c0.2,0,0.4,0.1,0.6,0.2c0.4,0.3,0.4,0.8,0.1,1.2c0,0-0.1,0.1-0.1,0.1c-0.2,0.1-0.4,0.2-0.6,0.2   c-0.2,0-0.4-0.1-0.5-0.2C35.5,1.3,35.4,1.1,35.4,0.8L35.4,0.8z"></path>		<path id="Path_201" class="st0" d="M43.6,11.1V5.3h-1.7v-1h1.7V3.9c0-0.8,0.1-1.5,0.3-2.2c0.2-0.5,0.6-0.9,1-1.2   C45.5,0.1,46.2,0,46.8,0c0.6,0,1.2,0.1,1.8,0.2v1.2c-0.6-0.2-1.1-0.3-1.7-0.3c-0.4,0-0.7,0.1-1.1,0.2c-0.3,0.2-0.6,0.4-0.7,0.7   c-0.2,0.5-0.3,1.1-0.3,1.7v0.5h3v1h-3v5.9L43.6,11.1z"></path>		<path id="Path_202" class="st0" d="M52.2,11.1V4.6h-2.1V3.6h3.4v6.5h2.1v1.1L52.2,11.1z M52,0.8c0-0.2,0.1-0.5,0.3-0.6   C52.5,0.1,52.7,0,52.9,0c0.2,0,0.4,0.1,0.6,0.2c0.4,0.3,0.4,0.8,0.1,1.2c0,0-0.1,0.1-0.1,0.1c-0.2,0.1-0.4,0.2-0.6,0.2   c-0.2,0-0.4-0.1-0.5-0.2C52.1,1.3,52,1.1,52,0.8L52,0.8z"></path>		<path id="Path_203" class="st0" d="M64.7,10.6c-0.9,0.5-1.9,0.7-2.9,0.7c-0.6,0-1.3-0.2-1.8-0.5c-0.6-0.4-1-0.9-1.3-1.4   c-0.3-0.6-0.5-1.3-0.5-2c0-0.7,0.2-1.4,0.5-2C59,4.8,59.5,4.3,60,3.9c0.5-0.4,1.2-0.5,1.8-0.5c0.8,0,1.6,0.3,2.2,1   c0.6,0.9,0.9,1.9,0.8,3v0.3h-5.2c0,0.5,0.1,1,0.3,1.4c0.2,0.4,0.5,0.7,0.9,1c0.4,0.2,0.8,0.3,1.2,0.3c1,0,1.9-0.3,2.7-0.8   L64.7,10.6z M59.7,6.6h3.8V6.4c0-0.5-0.1-1-0.5-1.5c-0.3-0.4-0.7-0.6-1.2-0.5c-0.5,0-1,0.2-1.3,0.6C60.1,5.4,59.8,6,59.7,6.6   L59.7,6.6z"></path>		<path id="Path_204" class="st0" d="M71.8,9.4c-0.3,0.6-0.8,1.1-1.4,1.4c-0.4,0.3-1,0.5-1.5,0.5c-0.7,0-1.3-0.3-1.7-0.8   c-0.6-0.7-0.8-1.6-0.8-2.5c0-0.8,0.2-1.6,0.5-2.3c0.3-0.6,0.8-1.2,1.3-1.6c0.6-0.4,1.3-0.6,2.1-0.6c0.4,0,0.7,0,1.1,0.1   c0.1,0,0.2,0,0.3,0V0.2h1.3v10.9h-1.3L71.8,9.4z M71.8,7.9V4.7c-0.4-0.1-0.8-0.2-1.2-0.2c-0.7,0-1.5,0.3-1.9,0.9   c-0.5,0.7-0.8,1.6-0.8,2.5c0,0.6,0.1,1.2,0.4,1.7c0.2,0.3,0.6,0.5,1,0.6c0.5,0,0.9-0.3,1.3-0.6C71.1,9.1,71.5,8.5,71.8,7.9   L71.8,7.9z"></path>		<path id="Path_205" class="st0" d="M83.3,10.9V9.6c0.9,0.5,1.9,0.7,3,0.8c0.4,0,0.7-0.1,1.1-0.2c0.3-0.1,0.6-0.3,0.8-0.6   c0.2-0.3,0.3-0.6,0.3-0.9c0-0.4-0.1-0.7-0.4-1c-0.4-0.4-0.8-0.8-1.3-1.1L86,6.2l-0.7-0.4c-1.1-0.5-1.8-1.5-1.8-2.7   c0-0.8,0.3-1.5,0.8-2c0.7-0.6,1.6-0.9,2.6-0.8c0.7,0,1.5,0.1,2.2,0.3v1.2c-0.7-0.3-1.5-0.4-2.2-0.4c-0.5,0-1,0.1-1.4,0.5   c-0.3,0.3-0.5,0.7-0.5,1.1c0,0.4,0.1,0.8,0.4,1.1c0.3,0.3,0.7,0.6,1.1,0.8l0.5,0.3l0.7,0.4L88,5.8c1,0.5,1.7,1.5,1.7,2.7   c0,0.8-0.3,1.5-0.9,2.1c-0.8,0.6-1.8,1-2.8,0.9c-0.4,0-0.8,0-1.2-0.1C84.3,11.2,83.8,11.1,83.3,10.9z"></path>		<path id="Path_206" class="st0" d="M97.6,10v1.2h-5.7V0.6h5.6v1.1h-4.2v3.6h3.8v1.1h-3.8V10L97.6,10z"></path>		<path id="Path_207" class="st0" d="M103,11.4c-1.1,0-2.2-0.5-2.7-1.5c-1.3-2.6-1.3-5.6,0-8.1c1-1.5,2.9-2,4.5-1   c0.4,0.3,0.7,0.6,1,1c1.2,2.6,1.2,5.6,0,8.1C105.2,10.9,104.1,11.5,103,11.4z M103,10.4c0.7,0,1.3-0.5,1.6-1.1   c0.9-2.2,0.9-4.6,0-6.8c-0.4-0.9-1.4-1.4-2.3-1c-0.5,0.2-0.8,0.5-1,1c-0.9,2.2-0.9,4.6,0,6.8C101.7,9.9,102.3,10.4,103,10.4   L103,10.4z"></path>	</g>	<g id="Group_102" transform="translate(1126.169 200.166)">		<g id="Group_94" transform="translate(1.439 8.478)">			<g id="Group_93">				<path id="Path_208" class="st0" d="M0.1,72.1c0.1-0.2,0.2-0.5,0.3-0.8v0c0.1-0.5,0-1-0.1-1.5c0-0.1,0-0.2,0-0.2c0,0,0,0,0-0.1     c2.1-1.4,4-3,5.8-4.9C20.6,48.8,23,17.6,6.1,2.1C5,1.1,6.5-0.7,7.6,0.3c17,15.6,16.2,47.5,1.6,64.2c-2.7,3-5.7,5.7-9.2,7.9     c0,0-0.1-0.1-0.1-0.1C0,72.2,0,72.2,0.1,72.1L0.1,72.1z"></path>			</g>		</g>		<g id="Group_95" transform="translate(6.611 68.935)">			<path id="Path_209" class="st0" d="M0,7.2c0,0,18.1-11,20.4-5.8S2.3,9.1,0,7.2z"></path>		</g>		<g id="Group_96" transform="translate(10.657 45.235)">			<path id="Path_210" class="st0" d="M3.5,21.2c0,0-6.8-20-1.3-21.2S5.8,19.4,3.5,21.2z"></path>		</g>		<g id="Group_97" transform="translate(1.24 62.04)">			<path id="Path_211" class="st0" d="M0.2,18.8c0,0-1.6-16.3,3.6-18.6S2.8,16.6,0.2,18.8z"></path>		</g>		<g id="Group_98" transform="translate(17.486 41.129)">			<path id="Path_212" class="st0" d="M0,16.4c0,0,9.1-19.1,13.8-16.1C18.6,3.3,3,16.7,0,16.4z"></path>		</g>		<g id="Group_99" transform="translate(6.059 24.404)">			<path id="Path_213" class="st0" d="M14.4,16.7c0,0-17.6-11.8-13.9-16.1S15.1,13.8,14.4,16.7z"></path>		</g>		<g id="Group_100" transform="translate(19.411 11.73)">			<path id="Path_214" class="st0" d="M0,20.6C0,20.6-0.6-0.5,5,0S2.8,19.5,0,20.6z"></path>		</g>		<g id="Group_101">			<path id="Path_215" class="st0" d="M14.2,16.9c0,0-17.4-12-13.7-16.2S15,14,14.2,16.9z"></path>		</g>	</g>	<g id="Group_112" transform="translate(948.776 200.166)">		<g id="Group_104" transform="translate(9.718 8.478)">			<g id="Group_103">				<path id="Path_216" class="st0" d="M18.6,72.1c-0.1-0.2-0.2-0.5-0.2-0.8l0,0c-0.1-0.5,0-1,0.1-1.5c0-0.1,0-0.2,0-0.2     c0,0,0,0,0-0.1c-2-1.4-3.7-3-5.3-4.9C-0.4,48.8-2.5,17.6,13.1,2.1c1-1-0.4-2.8-1.4-1.8C-4,15.9-3.3,47.8,10.2,64.5     c2.4,3,5.3,5.7,8.4,7.9c0,0,0-0.1,0.1-0.1C18.7,72.2,18.7,72.2,18.6,72.1L18.6,72.1z"></path>			</g>		</g>		<g id="Group_105" transform="translate(4.636 68.935)">			<path id="Path_217" class="st0" d="M19,7.2c0,0-16.7-11-18.8-5.8S16.9,9.1,19,7.2z"></path>		</g>		<g id="Group_106" transform="translate(14.578 45.235)">			<path id="Path_218" class="st0" d="M2.1,21.2c0,0,6.3-20,1.2-21.2S-0.1,19.4,2.1,21.2z"></path>		</g>		<g id="Group_107" transform="translate(23.195 62.04)">			<path id="Path_219" class="st0" d="M5.2,18.8c0,0,1.4-16.3-3.4-18.6S2.9,16.6,5.2,18.8z"></path>		</g>		<g id="Group_108" transform="translate(0 41.129)">			<path id="Path_220" class="st0" d="M13.6,16.4c0,0-8.4-19.1-12.8-16.1S10.8,16.7,13.6,16.4z"></path>		</g>		<g id="Group_109" transform="translate(10.835 24.404)">			<path id="Path_221" class="st0" d="M0,16.7C0,16.7,16.3,5,12.8,0.7S-0.7,13.8,0,16.7z"></path>		</g>		<g id="Group_110" transform="translate(5.354 11.73)">			<path id="Path_222" class="st0" d="M6.5,20.6C6.5,20.6,7-0.5,1.8,0S3.9,19.5,6.5,20.6z"></path>		</g>		<g id="Group_111" transform="translate(16.594)">			<path id="Path_223" class="st0" d="M0,16.9c0,0,16.1-12,12.6-16.2S-0.7,14,0,16.9z"></path>		</g>	</g></g></svg>