<svg xmlns="http://www.w3.org/2000/svg" xmlns:xlink="http://www.w3.org/1999/xlink" id="Layer_1" x="0px" y="0px" viewBox="0 0 209.2 80.7" style="enable-background:new 0 0 209.2 80.7;" xml:space="preserve"><style type="text/css">	.st0{fill:#FFFFFF;}</style><g id="Group_81" transform="translate(-863.539 -200.166)">	<g id="Group_54" transform="translate(897.267 210.304)">		<g id="Group_48">			<path id="Path_160" class="st0" d="M17.2,0h1.2c4.3,0.1,8.5,1.8,11.6,4.9c-1.1,1.1-2.3,2.2-3.4,3.4c-1.7-1.6-3.8-2.7-6-3.2    C13.8,3.6,7.1,8,5.6,14.8c-0.1,0.4-0.1,0.7-0.2,1.1c-0.5,3.6,0.5,7.2,2.8,10.1c2.3,2.7,5.6,4.3,9.1,4.5c3.3,0.3,6.6-0.9,9.1-3.1    c1.8-1.7,2.8-4,3-6.4c-3.9,0-7.8,0-11.6,0v-4.8h16.3c0.8,5.2-0.4,11-4.3,14.7c-2.7,2.6-6.2,4.2-9.9,4.5    c-3.6,0.4-7.2-0.3-10.5-2.1c-3.8-2.1-6.8-5.4-8.3-9.5C-0.3,19.9-0.4,15.8,1,12c1.2-3.4,3.5-6.4,6.4-8.5C10.2,1.4,13.6,0.2,17.2,0    z"></path>		</g>		<g id="Group_49" transform="translate(110.892 1.217)">			<path id="Path_161" class="st0" d="M0,0h5v33.4c-1.7,0-3.3,0-5,0C0,22.3,0,11.1,0,0L0,0z"></path>		</g>		<g id="Group_50" transform="translate(36.066 12.58)">			<path id="Path_162" class="st0" d="M9.2,0.2c3.1-0.6,6.4,0.1,9,1.9c2.3,1.7,3.9,4.2,4.4,7c1.3,6.1-2.7,12.1-8.8,13.4    c-1,0.2-2.1,0.3-3.1,0.2c-3.4-0.2-6.5-1.9-8.5-4.6c-2.2-3.1-2.8-7-1.5-10.6C1.9,3.7,5.2,0.9,9.2,0.2 M9.9,4.6    C8.6,5,7.4,5.7,6.6,6.7c-2.3,2.9-2.1,7,0.4,9.7c1.5,1.5,3.5,2.1,5.6,1.7c1.9-0.4,3.5-1.5,4.3-3.2c1.6-2.9,1.1-6.5-1.3-8.8    C14.1,4.7,11.9,4.2,9.9,4.6L9.9,4.6z"></path>		</g>		<g id="Group_51" transform="translate(60.851 12.577)">			<path id="Path_163" class="st0" d="M9.2,0.2C15.3-1.1,21.3,2.9,22.6,9c0.7,3.3-0.2,6.8-2.3,9.5c-2.3,2.8-5.8,4.4-9.4,4.2    c-3.5-0.1-6.7-1.8-8.7-4.6C-0.1,15-0.6,10.9,0.7,7.3C2.1,3.6,5.3,0.9,9.2,0.2 M9.9,4.6C8.6,5,7.4,5.7,6.6,6.7    c-2.3,2.8-2.1,6.9,0.3,9.6c1.5,1.5,3.6,2.2,5.7,1.8c1.8-0.4,3.4-1.5,4.3-3.2c1.6-2.9,1-6.5-1.3-8.8C14,4.7,11.9,4.1,9.9,4.6    L9.9,4.6z"></path>		</g>		<g id="Group_52" transform="translate(85.547 12.576)">			<path id="Path_164" class="st0" d="M5.5,1.6c2.7-1.8,6.2-2,9.2-0.7c0.9,0.4,1.7,1,2.4,1.8c0-0.6,0-1.3,0-1.9c1.6,0,3.1,0,4.7,0    v20.6c0,3.1-0.8,6.4-3.1,8.7c-2.5,2.5-6.2,3.3-9.6,2.8c-3.7-0.6-6.7-3.1-8.2-6.5c1.4-0.7,2.9-1.2,4.3-1.8c0.8,2,2.5,3.5,4.6,3.9    c2.1,0.5,4.4-0.2,5.8-1.9c1.4-1.8,1.4-4.2,1.4-6.4c-1,1.1-2.3,1.9-3.8,2.3c-3.3,0.8-6.8-0.1-9.3-2.4c-4.8-4.2-5.2-11.5-1-16.2    C3.6,2.9,4.5,2.2,5.5,1.6 M10.3,4.6c-1.4,0.3-2.7,1-3.7,2.1c-2.2,2.7-2.2,6.6,0,9.4c1.3,1.5,3.3,2.3,5.3,2.2    c1.9-0.2,3.5-1.3,4.5-3c1.6-2.8,1.3-6.3-0.8-8.8C14.3,4.9,12.3,4.2,10.3,4.6L10.3,4.6z"></path>		</g>		<g id="Group_53" transform="translate(118.36 12.562)">			<path id="Path_165" class="st0" d="M3.5,2.8c2.9-2.7,7-3.5,10.7-2.1c3.4,1.3,5.6,4.5,6.7,7.9c-5.1,2.1-10.1,4.2-15.2,6.3    c0.7,1.4,1.8,2.5,3.2,3c2.1,0.8,4.4,0.4,6.2-0.9c0.7-0.5,1.2-1.2,1.7-1.8c1.3,0.9,2.6,1.7,3.9,2.6c-3.5,5.2-10.7,6.6-15.9,3.1    c-0.8-0.5-1.5-1.2-2.2-1.9C-1.2,14.1-0.8,7.1,3.5,2.8 M6,7.1C5.3,8.3,4.9,9.6,4.9,11c3.4-1.4,6.8-2.8,10.2-4.2    c-0.6-1.3-1.9-2.2-3.3-2.3C9.5,4.2,7.3,5.2,6,7.1L6,7.1z"></path>		</g>	</g>	<g id="Group_60" transform="translate(928.492 260.405)">		<g id="Group_55">			<path id="Path_166" class="st0" d="M14.2,5.2c0,0.2-0.1,0.3-0.2,0.4l-3.1,3l0.7,4.3c0,0.1,0,0.1,0,0.2c0,0.1,0,0.2-0.1,0.3    c-0.1,0.1-0.2,0.1-0.3,0.1c-0.1,0-0.2,0-0.3-0.1l-3.8-2l-3.8,2c-0.1,0.1-0.2,0.1-0.3,0.1c-0.1,0-0.2,0-0.3-0.1    c-0.1-0.1-0.1-0.2-0.1-0.3c0-0.1,0-0.1,0-0.2l0.7-4.3l-3.1-3C0.1,5.5,0,5.4,0,5.2C0,5,0.2,4.9,0.5,4.8l4.3-0.6l1.9-3.9    C6.8,0.1,6.9,0,7.1,0s0.3,0.1,0.4,0.4l1.9,3.9l4.3,0.6C14,4.9,14.2,5,14.2,5.2z"></path>		</g>		<g id="Group_56" transform="translate(15.675)">			<path id="Path_167" class="st0" d="M14.2,5.2c0,0.2-0.1,0.3-0.2,0.4l-3.1,3l0.7,4.3c0,0.1,0,0.1,0,0.2c0,0.1,0,0.2-0.1,0.3    c-0.1,0.1-0.2,0.1-0.3,0.1c-0.1,0-0.2,0-0.3-0.1l-3.8-2l-3.8,2c-0.1,0.1-0.2,0.1-0.3,0.1c-0.1,0-0.2,0-0.3-0.1    c-0.1-0.1-0.1-0.2-0.1-0.3c0-0.1,0-0.1,0-0.2l0.7-4.3l-3.1-3C0.1,5.5,0,5.4,0,5.2C0,5,0.2,4.9,0.5,4.8l4.3-0.6l1.9-3.9    C6.8,0.1,6.9,0,7.1,0s0.3,0.1,0.4,0.4l1.9,3.9l4.3,0.6C14,4.9,14.2,5,14.2,5.2z"></path>		</g>		<g id="Group_57" transform="translate(31.357)">			<path id="Path_168" class="st0" d="M14.2,5.2c0,0.2-0.1,0.3-0.2,0.4l-3.1,3l0.7,4.3c0,0.1,0,0.1,0,0.2c0,0.1,0,0.2-0.1,0.3    c-0.1,0.1-0.2,0.1-0.3,0.1c-0.1,0-0.2,0-0.3-0.1l-3.8-2l-3.8,2c-0.1,0.1-0.2,0.1-0.3,0.1c-0.1,0-0.2,0-0.3-0.1    c-0.1-0.1-0.1-0.2-0.1-0.3c0-0.1,0-0.1,0-0.2l0.7-4.3l-3.1-3C0.1,5.5,0,5.4,0,5.2C0,5,0.2,4.9,0.5,4.8l4.3-0.6l1.9-3.9    C6.8,0.1,6.9,0,7.1,0s0.3,0.1,0.4,0.4l1.9,3.9l4.3,0.6C14,4.9,14.2,5,14.2,5.2z"></path>		</g>		<g id="Group_58" transform="translate(47.035)">			<path id="Path_169" class="st0" d="M14.2,5.2c0,0.2-0.1,0.3-0.2,0.4l-3.1,3l0.7,4.3c0,0.1,0,0.1,0,0.2c0,0.1,0,0.2-0.1,0.3    c-0.1,0.1-0.2,0.1-0.3,0.1c-0.1,0-0.2,0-0.3-0.1l-3.8-2l-3.8,2c-0.1,0.1-0.2,0.1-0.3,0.1c-0.1,0-0.2,0-0.3-0.1    c-0.1-0.1-0.1-0.2-0.1-0.3c0-0.1,0-0.1,0-0.2l0.7-4.3l-3.1-3C0.1,5.5,0,5.4,0,5.2C0,5,0.2,4.9,0.5,4.8l4.3-0.6l1.9-3.9    C6.8,0.1,6.9,0,7.1,0s0.3,0.1,0.4,0.4l1.9,3.9l4.3,0.6C14,4.9,14.2,5,14.2,5.2z"></path>		</g>		<g id="Group_59" transform="translate(62.713)">			<path id="Path_170" class="st0" d="M14.2,5.2c0,0.2-0.1,0.3-0.2,0.4l-3.1,3l0.7,4.3c0,0.1,0,0.1,0,0.2c0,0.1,0,0.2-0.1,0.3    c-0.1,0.1-0.2,0.1-0.3,0.1c-0.1,0-0.2,0-0.3-0.1l-3.8-2l-3.8,2c-0.1,0.1-0.2,0.1-0.3,0.1c-0.1,0-0.2,0-0.3-0.1    c-0.1-0.1-0.1-0.2-0.1-0.3c0-0.1,0-0.1,0-0.2l0.7-4.3l-3.1-3C0.1,5.5,0,5.4,0,5.2C0,5,0.2,4.9,0.5,4.8l4.3-0.6l1.9-3.9    C6.8,0.1,6.9,0,7.1,0s0.3,0.1,0.4,0.4l1.9,3.9l4.3,0.6C14,4.9,14.2,5,14.2,5.2z"></path>		</g>	</g>	<g id="Group_70" transform="translate(1040.594 200.166)">		<g id="Group_62" transform="translate(1.436 8.462)">			<g id="Group_61">				<path id="Path_171" class="st0" d="M0.1,72c0.1-0.2,0.2-0.5,0.3-0.8v0c0.1-0.5,0-1-0.1-1.5c0-0.1,0-0.2,0-0.2c0,0,0,0,0-0.1     c2.1-1.4,4-3,5.8-4.9C20.6,48.7,23,17.6,6.1,2.1C5,1.1,6.5-0.7,7.6,0.3c16.9,15.5,16.2,47.4,1.6,64.1c-2.7,3-5.7,5.7-9.1,7.8     c0,0-0.1-0.1-0.1-0.1C0,72.1,0,72,0.1,72L0.1,72z"></path>			</g>		</g>		<g id="Group_63" transform="translate(6.598 68.804)">			<path id="Path_172" class="st0" d="M0,7.2C0,7.2,18-3.8,20.4,1.4S2.3,9.1,0,7.2z"></path>		</g>		<g id="Group_64" transform="translate(10.636 45.149)">			<path id="Path_173" class="st0" d="M3.5,21.2c0,0-6.8-20-1.3-21.1S5.8,19.3,3.5,21.2z"></path>		</g>		<g id="Group_65" transform="translate(1.237 61.922)">			<path id="Path_174" class="st0" d="M0.2,18.8c0,0-1.6-16.3,3.6-18.6S2.7,16.6,0.2,18.8z"></path>		</g>		<g id="Group_66" transform="translate(17.452 41.051)">			<path id="Path_175" class="st0" d="M0,16.4c0,0,9-19.1,13.8-16.1S3,16.7,0,16.4z"></path>		</g>		<g id="Group_67" transform="translate(6.047 24.357)">			<path id="Path_176" class="st0" d="M14.4,16.7c0,0-17.5-11.7-13.9-16S15.1,13.8,14.4,16.7z"></path>		</g>		<g id="Group_68" transform="translate(19.374 11.708)">			<path id="Path_177" class="st0" d="M0,20.6C0,20.6-0.6-0.5,5,0S2.8,19.5,0,20.6z"></path>		</g>		<g id="Group_69">			<path id="Path_178" class="st0" d="M14.2,16.8c0,0-17.4-12-13.7-16.2S15,13.9,14.2,16.8z"></path>		</g>	</g>	<g id="Group_80" transform="translate(863.539 200.166)">		<g id="Group_72" transform="translate(9.699 8.462)">			<g id="Group_71">				<path id="Path_179" class="st0" d="M18.6,72c-0.1-0.2-0.2-0.5-0.2-0.8l0,0c-0.1-0.5,0-1,0.1-1.5c0-0.1,0-0.2,0-0.2     c0,0,0,0,0-0.1c-2-1.4-3.7-3-5.3-4.9C-0.4,48.7-2.5,17.6,13,2.1c1-1-0.4-2.8-1.4-1.8C-4,15.8-3.3,47.7,10.2,64.4     c2.4,3,5.3,5.6,8.4,7.8c0,0,0-0.1,0.1-0.1C18.6,72.1,18.6,72,18.6,72L18.6,72z"></path>			</g>		</g>		<g id="Group_73" transform="translate(4.627 68.804)">			<path id="Path_180" class="st0" d="M19,7.2c0,0-16.7-10.9-18.8-5.8S16.8,9.1,19,7.2z"></path>		</g>		<g id="Group_74" transform="translate(14.55 45.149)">			<path id="Path_181" class="st0" d="M2.1,21.2c0,0,6.3-20,1.2-21.1S-0.1,19.3,2.1,21.2z"></path>		</g>		<g id="Group_75" transform="translate(23.151 61.922)">			<path id="Path_182" class="st0" d="M5.2,18.8c0,0,1.4-16.3-3.3-18.6S2.9,16.6,5.2,18.8z"></path>		</g>		<g id="Group_76" transform="translate(0 41.051)">			<path id="Path_183" class="st0" d="M13.6,16.4c0,0-8.3-19.1-12.8-16.1S10.8,16.7,13.6,16.4z"></path>		</g>		<g id="Group_77" transform="translate(10.817 24.357)">			<path id="Path_184" class="st0" d="M0,16.7c0,0,16.2-11.7,12.8-16S-0.7,13.8,0,16.7z"></path>		</g>		<g id="Group_78" transform="translate(5.343 11.708)">			<path id="Path_185" class="st0" d="M6.4,20.6C6.4,20.6,7-0.5,1.8,0S3.9,19.5,6.4,20.6z"></path>		</g>		<g id="Group_79" transform="translate(16.562)">			<path id="Path_186" class="st0" d="M0,16.8c0,0,16-12,12.6-16.2S-0.7,13.9,0,16.8z"></path>		</g>	</g></g></svg>